<svg xmlns="http://www.w3.org/2000/svg" xmlns:xlink="http://www.w3.org/1999/xlink" width="320" zoomAndPan="magnify" viewBox="0 0 240 98.999996" height="132" preserveAspectRatio="xMidYMid meet" version="1.0"><defs><g/><clipPath id="ea12490907"><path d="M 38 0.398438 L 59 0.398438 L 59 29 L 38 29 Z M 38 0.398438 " clip-rule="nonzero"/></clipPath><clipPath id="3ec318c966"><rect x="0" width="191" y="0" height="40"/></clipPath><clipPath id="7a2fa71b77"><path d="M 10 25 L 47 25 L 47 62 L 10 62 Z M 10 25 " clip-rule="nonzero"/></clipPath><clipPath id="bb5a24b7e8"><path d="M 5.121094 50.632812 L 35.878906 19.875 L 61.863281 45.859375 L 31.105469 76.617188 Z M 5.121094 50.632812 " clip-rule="nonzero"/></clipPath><clipPath id="02427bf5eb"><path d="M 5.121094 50.632812 L 35.878906 19.875 L 61.863281 45.859375 L 31.105469 76.617188 Z M 5.121094 50.632812 " clip-rule="nonzero"/></clipPath></defs><g transform="matrix(1, 0, 0, 1, 48, 32)"><g clip-path="url(#3ec318c966)"><g fill="#000000" fill-opacity="1"><g transform="translate(1.008919, 28.376657)"><g><path d="M 16 -5.78125 C 16 -3.957031 15.34375 -2.46875 14.03125 -1.3125 C 12.570312 -0.0078125 10.515625 0.640625 7.859375 0.640625 C 5.503906 0.640625 3.222656 -0.015625 1.015625 -1.328125 L 3.203125 -5.609375 C 4.941406 -4.460938 6.554688 -3.890625 8.046875 -3.890625 C 9.304688 -3.890625 9.9375 -4.328125 9.9375 -5.203125 C 9.9375 -5.660156 9.71875 -6.007812 9.28125 -6.25 C 9 -6.414062 8.359375 -6.609375 7.359375 -6.828125 C 6.242188 -7.066406 5.515625 -7.253906 5.171875 -7.390625 C 3.941406 -7.867188 3.109375 -8.617188 2.671875 -9.640625 C 2.441406 -10.203125 2.328125 -10.867188 2.328125 -11.640625 C 2.328125 -13.140625 2.835938 -14.445312 3.859375 -15.5625 C 5.171875 -17.007812 7.195312 -17.734375 9.9375 -17.734375 C 11.84375 -17.734375 13.695312 -17.363281 15.5 -16.625 L 13.453125 -12.703125 C 12.316406 -13.285156 11.234375 -13.578125 10.203125 -13.578125 C 8.984375 -13.578125 8.375 -13.160156 8.375 -12.328125 C 8.375 -11.941406 8.617188 -11.632812 9.109375 -11.40625 C 9.335938 -11.289062 9.988281 -11.125 11.0625 -10.90625 C 12.65625 -10.570312 13.828125 -10.039062 14.578125 -9.3125 C 15.523438 -8.40625 16 -7.226562 16 -5.78125 Z M 16 -5.78125 "/></g></g></g><g fill="#000000" fill-opacity="1"><g transform="translate(15.712137, 28.376657)"><g><path d="M 21.984375 -8.5625 C 21.984375 -6.1875 21.203125 -4.148438 19.640625 -2.453125 C 17.753906 -0.390625 15.109375 0.640625 11.703125 0.640625 C 8.273438 0.640625 5.613281 -0.390625 3.71875 -2.453125 C 2.164062 -4.148438 1.390625 -6.234375 1.390625 -8.703125 C 1.390625 -10.929688 2.175781 -12.90625 3.75 -14.625 C 5.65625 -16.707031 8.363281 -17.75 11.875 -17.75 C 15.113281 -17.75 17.695312 -16.707031 19.625 -14.625 C 21.195312 -12.925781 21.984375 -10.90625 21.984375 -8.5625 Z M 15.703125 -8.5625 C 15.703125 -9.664062 15.3125 -10.601562 14.53125 -11.375 C 13.75 -12.144531 12.804688 -12.53125 11.703125 -12.53125 C 10.441406 -12.53125 9.421875 -12.0625 8.640625 -11.125 C 7.992188 -10.375 7.671875 -9.519531 7.671875 -8.5625 C 7.671875 -7.59375 7.992188 -6.734375 8.640625 -5.984375 C 9.421875 -5.046875 10.441406 -4.578125 11.703125 -4.578125 C 12.816406 -4.578125 13.757812 -4.957031 14.53125 -5.71875 C 15.3125 -6.488281 15.703125 -7.4375 15.703125 -8.5625 Z M 15.703125 -8.5625 "/></g></g></g><g clip-path="url(#ea12490907)"><g fill="#000000" fill-opacity="1"><g transform="translate(36.779511, 28.376657)"><g><path d="M 22.046875 -8.578125 C 22.046875 -5.703125 21.054688 -3.390625 19.078125 -1.640625 C 17.410156 -0.179688 15.515625 0.546875 13.390625 0.546875 C 12.078125 0.546875 10.90625 0.257812 9.875 -0.3125 C 9.238281 -0.65625 8.648438 -1.1875 8.109375 -1.90625 L 8.109375 0 L 2.0625 0 L 2.0625 -27.703125 L 8.109375 -27.703125 L 8.109375 -15.4375 C 8.765625 -16.113281 9.398438 -16.597656 10.015625 -16.890625 C 11.085938 -17.410156 12.234375 -17.671875 13.453125 -17.671875 C 15.535156 -17.671875 17.382812 -16.976562 19 -15.59375 C 21.03125 -13.84375 22.046875 -11.503906 22.046875 -8.578125 Z M 15.75 -8.5625 C 15.75 -9.507812 15.4375 -10.351562 14.8125 -11.09375 C 14.039062 -12 13.050781 -12.453125 11.84375 -12.453125 C 10.757812 -12.453125 9.835938 -12.070312 9.078125 -11.3125 C 8.316406 -10.5625 7.9375 -9.644531 7.9375 -8.5625 C 7.9375 -7.476562 8.316406 -6.554688 9.078125 -5.796875 C 9.835938 -5.046875 10.757812 -4.671875 11.84375 -4.671875 C 13.0625 -4.671875 14.050781 -5.125 14.8125 -6.03125 C 15.4375 -6.78125 15.75 -7.625 15.75 -8.5625 Z M 15.75 -8.5625 "/></g></g></g></g><g fill="#000000" fill-opacity="1"><g transform="translate(57.902225, 28.376657)"><g><path d="M 14.90625 -11.53125 C 14.0625 -11.9375 13.203125 -12.140625 12.328125 -12.140625 C 10.328125 -12.140625 9.035156 -11.328125 8.453125 -9.703125 C 8.222656 -9.109375 8.109375 -8.316406 8.109375 -7.328125 L 8.109375 0 L 2.0625 0 L 2.0625 -17.125 L 8.109375 -17.125 L 8.109375 -14.3125 C 8.753906 -15.3125 9.445312 -16.03125 10.1875 -16.46875 C 11.175781 -17.0625 12.351562 -17.359375 13.71875 -17.359375 C 14.039062 -17.359375 14.4375 -17.335938 14.90625 -17.296875 Z M 14.90625 -11.53125 "/></g></g></g><g fill="#000000" fill-opacity="1"><g transform="translate(71.129697, 28.376657)"><g><path d="M 20.234375 -7.453125 L 7.515625 -7.453125 C 7.515625 -4.878906 8.753906 -3.59375 11.234375 -3.59375 C 12.503906 -3.59375 13.476562 -4.132812 14.15625 -5.21875 L 20 -5.21875 C 19.53125 -3.664062 18.84375 -2.46875 17.9375 -1.625 C 16.28125 -0.0820312 14.070312 0.6875 11.3125 0.6875 C 7.789062 0.6875 5.144531 -0.382812 3.375 -2.53125 C 2.050781 -4.125 1.390625 -6.070312 1.390625 -8.375 C 1.390625 -11.101562 2.21875 -13.320312 3.875 -15.03125 C 5.53125 -16.738281 7.875 -17.59375 10.90625 -17.59375 C 14.632812 -17.59375 17.296875 -16.242188 18.890625 -13.546875 C 19.785156 -12.015625 20.234375 -10.242188 20.234375 -8.234375 Z M 14.59375 -10.921875 C 14.164062 -12.816406 13.015625 -13.765625 11.140625 -13.765625 C 10.109375 -13.765625 9.273438 -13.460938 8.640625 -12.859375 C 8.128906 -12.378906 7.804688 -11.734375 7.671875 -10.921875 Z M 14.59375 -10.921875 "/></g></g></g><g fill="#000000" fill-opacity="1"><g transform="translate(90.444622, 28.376657)"><g><path d="M 14.984375 -0.375 C 13.722656 0.257812 12.40625 0.578125 11.03125 0.578125 C 7.90625 0.578125 5.425781 -0.476562 3.59375 -2.59375 C 2.125 -4.3125 1.390625 -6.296875 1.390625 -8.546875 C 1.390625 -10.804688 2.125 -12.785156 3.59375 -14.484375 C 5.425781 -16.597656 7.90625 -17.65625 11.03125 -17.65625 C 12.4375 -17.65625 13.753906 -17.335938 14.984375 -16.703125 L 14.984375 -11.546875 C 13.910156 -12.296875 12.863281 -12.671875 11.84375 -12.671875 C 10.632812 -12.671875 9.632812 -12.28125 8.84375 -11.5 C 8.0625 -10.726562 7.671875 -9.742188 7.671875 -8.546875 C 7.671875 -7.335938 8.0625 -6.34375 8.84375 -5.5625 C 9.632812 -4.789062 10.632812 -4.40625 11.84375 -4.40625 C 12.851562 -4.40625 13.898438 -4.773438 14.984375 -5.515625 Z M 14.984375 -0.375 "/></g></g></g><g fill="#000000" fill-opacity="1"><g transform="translate(104.5022, 28.376657)"><g><path d="M 20.3125 -6.25 C 20.3125 -3.0625 18.804688 -0.945312 15.796875 0.09375 C 14.535156 0.519531 13.003906 0.734375 11.203125 0.734375 C 7.640625 0.734375 5.085938 -0.132812 3.546875 -1.875 C 2.554688 -2.988281 2.0625 -4.445312 2.0625 -6.25 L 2.0625 -17.125 L 8.109375 -17.125 L 8.109375 -7.421875 C 8.109375 -6.347656 8.367188 -5.5625 8.890625 -5.0625 C 9.441406 -4.519531 10.210938 -4.25 11.203125 -4.25 C 12.171875 -4.25 12.929688 -4.519531 13.484375 -5.0625 C 14.003906 -5.5625 14.265625 -6.347656 14.265625 -7.421875 L 14.265625 -17.125 L 20.3125 -17.125 Z M 20.3125 -6.25 "/></g></g></g><g fill="#000000" fill-opacity="1"><g transform="translate(124.554998, 28.376657)"><g><path d="M 22.046875 -8.546875 C 22.046875 -5.617188 21.03125 -3.28125 19 -1.53125 C 17.382812 -0.144531 15.535156 0.546875 13.453125 0.546875 C 12.234375 0.546875 11.085938 0.289062 10.015625 -0.21875 C 9.398438 -0.519531 8.765625 -1.003906 8.109375 -1.671875 L 8.109375 8.5625 L 2.0625 8.5625 L 2.0625 -17.125 L 8.109375 -17.125 L 8.109375 -15.21875 C 8.648438 -15.9375 9.238281 -16.46875 9.875 -16.8125 C 10.90625 -17.382812 12.078125 -17.671875 13.390625 -17.671875 C 15.515625 -17.671875 17.410156 -16.941406 19.078125 -15.484375 C 21.054688 -13.734375 22.046875 -11.421875 22.046875 -8.546875 Z M 15.75 -8.5625 C 15.75 -9.53125 15.441406 -10.375 14.828125 -11.09375 C 14.054688 -12 13.0625 -12.453125 11.84375 -12.453125 C 10.75 -12.453125 9.820312 -12.078125 9.0625 -11.328125 C 8.3125 -10.578125 7.9375 -9.65625 7.9375 -8.5625 C 7.9375 -7.476562 8.316406 -6.554688 9.078125 -5.796875 C 9.835938 -5.046875 10.757812 -4.671875 11.84375 -4.671875 C 13.0625 -4.671875 14.050781 -5.125 14.8125 -6.03125 C 15.4375 -6.769531 15.75 -7.613281 15.75 -8.5625 Z M 15.75 -8.5625 "/></g></g></g><g fill="#000000" fill-opacity="1"><g transform="translate(145.677713, 28.376657)"><g><path d="M 21.984375 -8.5625 C 21.984375 -6.1875 21.203125 -4.148438 19.640625 -2.453125 C 17.753906 -0.390625 15.109375 0.640625 11.703125 0.640625 C 8.273438 0.640625 5.613281 -0.390625 3.71875 -2.453125 C 2.164062 -4.148438 1.390625 -6.234375 1.390625 -8.703125 C 1.390625 -10.929688 2.175781 -12.90625 3.75 -14.625 C 5.65625 -16.707031 8.363281 -17.75 11.875 -17.75 C 15.113281 -17.75 17.695312 -16.707031 19.625 -14.625 C 21.195312 -12.925781 21.984375 -10.90625 21.984375 -8.5625 Z M 15.703125 -8.5625 C 15.703125 -9.664062 15.3125 -10.601562 14.53125 -11.375 C 13.75 -12.144531 12.804688 -12.53125 11.703125 -12.53125 C 10.441406 -12.53125 9.421875 -12.0625 8.640625 -11.125 C 7.992188 -10.375 7.671875 -9.519531 7.671875 -8.5625 C 7.671875 -7.59375 7.992188 -6.734375 8.640625 -5.984375 C 9.421875 -5.046875 10.441406 -4.578125 11.703125 -4.578125 C 12.816406 -4.578125 13.757812 -4.957031 14.53125 -5.71875 C 15.3125 -6.488281 15.703125 -7.4375 15.703125 -8.5625 Z M 15.703125 -8.5625 "/></g></g></g><g fill="#000000" fill-opacity="1"><g transform="translate(166.745087, 28.376657)"><g><path d="M 16 -5.78125 C 16 -3.957031 15.34375 -2.46875 14.03125 -1.3125 C 12.570312 -0.0078125 10.515625 0.640625 7.859375 0.640625 C 5.503906 0.640625 3.222656 -0.015625 1.015625 -1.328125 L 3.203125 -5.609375 C 4.941406 -4.460938 6.554688 -3.890625 8.046875 -3.890625 C 9.304688 -3.890625 9.9375 -4.328125 9.9375 -5.203125 C 9.9375 -5.660156 9.71875 -6.007812 9.28125 -6.25 C 9 -6.414062 8.359375 -6.609375 7.359375 -6.828125 C 6.242188 -7.066406 5.515625 -7.253906 5.171875 -7.390625 C 3.941406 -7.867188 3.109375 -8.617188 2.671875 -9.640625 C 2.441406 -10.203125 2.328125 -10.867188 2.328125 -11.640625 C 2.328125 -13.140625 2.835938 -14.445312 3.859375 -15.5625 C 5.171875 -17.007812 7.195312 -17.734375 9.9375 -17.734375 C 11.84375 -17.734375 13.695312 -17.363281 15.5 -16.625 L 13.453125 -12.703125 C 12.316406 -13.285156 11.234375 -13.578125 10.203125 -13.578125 C 8.984375 -13.578125 8.375 -13.160156 8.375 -12.328125 C 8.375 -11.941406 8.617188 -11.632812 9.109375 -11.40625 C 9.335938 -11.289062 9.988281 -11.125 11.0625 -10.90625 C 12.65625 -10.570312 13.828125 -10.039062 14.578125 -9.3125 C 15.523438 -8.40625 16 -7.226562 16 -5.78125 Z M 16 -5.78125 "/></g></g></g><g fill="#000000" fill-opacity="1"><g transform="translate(181.460876, 28.376657)"><g/></g></g></g></g><g clip-path="url(#7a2fa71b77)"><g clip-path="url(#bb5a24b7e8)"><g clip-path="url(#02427bf5eb)"><path fill="#ff3131" d="M 25.554688 35.96875 L 25.554688 40.195312 L 21.332031 40.195312 C 15.566406 40.195312 10.890625 44.867188 10.890625 50.636719 C 10.890625 56.402344 15.566406 61.078125 21.332031 61.078125 L 46.4375 61.078125 L 46.4375 35.96875 C 46.4375 30.203125 41.761719 25.527344 35.996094 25.527344 C 30.230469 25.527344 25.554688 30.203125 25.554688 35.96875 Z M 25.554688 35.96875 " fill-opacity="1" fill-rule="nonzero"/></g></g></g></svg>